<?xml version="1.0" encoding="utf-8"?>
<!-- Generator: Adobe Illustrator 27.5.0, SVG Export Plug-In . SVG Version: 6.00 Build 0)  -->
<svg version="1.1" xmlns="http://www.w3.org/2000/svg" xmlns:xlink="http://www.w3.org/1999/xlink" x="0px" y="0px"
	 viewBox="0 0 500 500" style="enable-background:new 0 0 500 500;" xml:space="preserve">
<g id="BACKGROUND">
	<rect style="fill:#FFFFFF;" width="500" height="500"/>
	<rect style="fill-rule:evenodd;clip-rule:evenodd;fill:#FFFFFF;" width="500" height="500"/>
</g>
<g id="OBJECTS">
	<g>
		<g>
			<g>
				<g>
					<g>
						<rect x="122.377" y="293.545" style="fill:#C8412E;" width="7.308" height="43.104"/>
						<rect x="136.906" y="310.744" style="fill:#C8412E;" width="7.31" height="25.904"/>
						<rect x="136.906" y="299.339" style="fill:#C8412E;" width="7.31" height="25.905"/>
						<rect x="215.097" y="312.292" style="fill:#C8412E;" width="4.969" height="24.356"/>
						<rect x="195.103" y="310.8" style="fill:#C8412E;" width="4.969" height="25.849"/>
						<rect x="182.088" y="297.505" style="fill:#C8412E;" width="7.922" height="32.547"/>
						<rect x="205.579" y="292.304" style="fill:#C8412E;" width="8.229" height="37.748"/>
						<polygon style="fill:#C8412E;" points="113.728,337.19 113.728,299.048 104.153,294.087 104.153,337.19 						"/>
						<rect x="78.829" y="312.292" style="fill:#C8412E;" width="8.033" height="26.631"/>
						<rect x="97.842" y="312.292" style="fill:#C8412E;" width="4.986" height="26.631"/>
						<rect x="65.439" y="305.144" style="fill:#C8412E;" width="4.987" height="33.779"/>
						<rect x="72.454" y="300.289" style="fill:#C8412E;" width="2.494" height="30.007"/>
						<rect x="82.866" y="295.046" style="fill:#C8412E;" width="2.493" height="30.008"/>
						<rect x="46.073" y="330.206" style="fill:#C8412E;" width="6.496" height="15.372"/>
						<rect x="54.953" y="324.347" style="fill:#C8412E;" width="3.774" height="10.651"/>
						<rect x="61.449" y="330.206" style="fill:#C8412E;" width="4.033" height="15.372"/>
						<rect x="35.244" y="326.079" style="fill:#C8412E;" width="4.033" height="19.499"/>
						<rect x="40.917" y="323.276" style="fill:#C8412E;" width="2.016" height="17.322"/>
						<rect x="51.936" y="317.537" style="fill:#C8412E;" width="2.017" height="23.433"/>
						<rect x="455.099" y="333.233" style="fill:#C8412E;" width="5.619" height="12.345"/>
						<rect x="449.77" y="328.53" style="fill:#C8412E;" width="3.266" height="8.553"/>
						<rect x="443.929" y="333.233" style="fill:#C8412E;" width="3.487" height="12.345"/>
						<rect x="466.597" y="329.921" style="fill:#C8412E;" width="3.488" height="15.657"/>
						<rect x="463.435" y="327.669" style="fill:#C8412E;" width="1.743" height="13.91"/>
						<rect x="453.902" y="323.06" style="fill:#C8412E;" width="1.744" height="18.817"/>
						<rect x="115.066" y="300.289" style="fill:#C8412E;" width="14.618" height="36.359"/>
						<rect x="297.721" y="264.981" style="fill:#E25B4D;" width="7.17" height="69.473"/>
						<rect x="323.279" y="260.845" style="fill:#E25B4D;" width="7.172" height="73.609"/>
						<rect x="280.611" y="243.728" style="fill:#E25B4D;" width="9.394" height="90.726"/>
						<rect x="338.842" y="203.065" style="fill:#E25B4D;" width="10.868" height="128.724"/>
						<rect x="343.74" y="164.728" style="fill:#E25B4D;" width="1.361" height="127.185"/>
						<rect x="264.321" y="259.706" style="fill:#E25B4D;" width="13.148" height="71.75"/>
						<rect x="286.366" y="274.876" style="fill:#E25B4D;" width="14.339" height="57.954"/>
						<rect x="307.264" y="286.252" style="fill:#E25B4D;" width="14.342" height="48.202"/>
						<rect x="286.366" y="282.684" style="fill:#E25B4D;" width="57.886" height="46.997"/>
						<rect x="97.842" y="316.029" style="fill:#C8412E;" width="119.739" height="28.536"/>
					</g>
				</g>
				<g>
					<rect x="316.415" y="272.407" style="fill:#E25B4D;" width="4.428" height="42.276"/>
					<rect x="366.797" y="273.752" style="fill:#E25B4D;" width="7.233" height="65.597"/>
					<rect x="277.351" y="300.978" style="fill:#E25B4D;" width="4.918" height="38.371"/>
					<rect x="297.139" y="298.808" style="fill:#E25B4D;" width="4.917" height="40.541"/>
					<rect x="283.544" y="271.948" style="fill:#E25B4D;" width="8.144" height="54.817"/>
					<rect x="381.814" y="255.677" style="fill:#E25B4D;" width="9.476" height="83.672"/>
					<rect x="399.386" y="269.265" style="fill:#E25B4D;" width="13.264" height="61.016"/>
					<polygon style="fill:#E25B4D;" points="192.496,338.218 192.496,279.634 185.263,277.558 185.263,338.218 					"/>
					<rect x="176.187" y="273.752" style="fill:#E25B4D;" width="7.234" height="65.597"/>
					<rect x="193.711" y="257.837" style="fill:#E25B4D;" width="9.476" height="83.04"/>
					<polygon style="fill:#E25B4D;" points="167.723,334.078 158.248,334.078 158.248,257.894 167.723,249.591 					"/>
					<rect x="217.581" y="275.492" style="fill:#E25B4D;" width="13.263" height="61.01"/>
				</g>
				<rect x="211.091" y="303.29" style="fill:#C8412E;" width="191.852" height="31.483"/>
				<g>
					<path style="fill:#A83226;" d="M253.266,208.58c0-0.707-0.491-1.368-1.343-1.941c0.852-0.997,1.343-2.147,1.343-3.373
						c0-1.711-0.949-3.271-2.511-4.474v-1.913c0-1.34-2.307-2.474-5.491-2.856V169.13c0.901-0.48,1.49-1.22,1.49-2.059
						c0-1.032-0.883-1.916-2.156-2.344v-14.57h-0.654v-5.394h-0.365v-18.369h-1.361v18.369h-0.365v5.394h-0.657v14.57
						c-1.273,0.428-2.154,1.313-2.154,2.344c0,0.839,0.589,1.578,1.49,2.059v24.893c-3.184,0.382-5.494,1.516-5.494,2.856v1.913
						c-1.561,1.203-2.509,2.763-2.509,4.474c0,1.226,0.492,2.376,1.341,3.373c-0.849,0.573-1.341,1.234-1.341,1.941
						c0,1.746,2.969,3.225,7.086,3.748c-0.484,61.005-6.373,134.557-6.373,134.557h9.654h9.656c0,0-5.887-73.552-6.374-134.557
						C250.295,211.805,253.266,210.326,253.266,208.58z"/>
					<g>
						<rect x="130.418" y="320.599" style="fill:#A83226;" width="100.459" height="26.286"/>
						<path style="fill:#A83226;" d="M230.425,333.551c-0.635-17.76-22.677-32.027-49.777-32.027
							c-27.1,0-49.142,14.268-49.777,32.027H230.425z"/>
						<path style="fill:#771B1B;" d="M214.23,325.291c-4.756-9.215-17.992-15.845-33.583-15.845
							c-15.591,0-28.827,6.63-33.583,15.845H214.23z"/>
					</g>
					<rect x="226.916" y="307.888" style="fill:#A83226;" width="15.943" height="38.997"/>
					<rect x="276.698" y="289.224" style="fill:#A83226;" width="14.366" height="57.661"/>
					<polygon style="fill:#A83226;" points="269.259,346.885 254.892,346.885 254.892,289.224 269.259,280.602 					"/>
					<rect x="292.446" y="286.308" style="fill:#A83226;" width="21.657" height="60.577"/>
					<rect x="319.081" y="298.36" style="fill:#A83226;" width="16.516" height="48.524"/>
					<rect x="373.713" y="286.308" style="fill:#A83226;" width="21.657" height="60.577"/>
					<rect x="400.348" y="281.058" style="fill:#A83226;" width="21.182" height="65.827"/>
					<rect x="340.079" y="311.971" style="fill:#A83226;" width="16.516" height="34.914"/>
					<rect x="359.326" y="303.221" style="fill:#A83226;" width="11.461" height="43.664"/>
					<rect x="423.183" y="295.968" style="fill:#A83226;" width="6.902" height="50.917"/>
					<rect x="241.108" y="314.886" style="fill:#A83226;" width="18.016" height="31.999"/>
					<rect x="280.898" y="319.163" style="fill:#A83226;" width="18.018" height="27.722"/>
					<rect x="305.095" y="314.129" style="fill:#A83226;" width="18.018" height="32.756"/>
					<rect x="325.216" y="328.419" style="fill:#A83226;" width="18.016" height="18.466"/>
					<rect x="352.77" y="332.308" style="fill:#A83226;" width="13.531" height="14.577"/>
					<rect x="366.946" y="320.599" style="fill:#A83226;" width="13.531" height="26.286"/>
					<rect x="390.274" y="317.537" style="fill:#A83226;" width="13.534" height="29.348"/>
					<rect x="432.748" y="301.761" style="fill:#A83226;" width="3.139" height="45.124"/>
					<rect x="436.709" y="312.211" style="fill:#A83226;" width="3.139" height="33.152"/>
					<rect x="439.223" y="322.262" style="fill:#A83226;" width="3.137" height="23.102"/>
					<rect x="440.79" y="326.512" style="fill:#A83226;" width="3.139" height="18.852"/>
					<rect x="443.109" y="317.537" style="fill:#A83226;" width="3.94" height="27.826"/>
					<polygon style="fill:#A83226;" points="109.435,278.772 109.435,276.216 108.002,276.216 108.002,273.94 107.018,273.94 
						107.018,272.214 97.165,272.214 97.165,273.94 96.181,273.94 96.181,276.216 94.749,276.216 94.749,278.772 93.612,278.772 
						93.612,346.885 110.57,346.885 110.57,278.772 					"/>
					<polygon style="fill:#A83226;" points="363.126,251.977 363.126,248.416 361.419,248.416 361.419,245.247 360.25,245.247 
						360.25,242.839 348.52,242.839 348.52,245.247 347.349,245.247 347.349,248.416 345.643,248.416 345.643,251.977 
						344.289,251.977 344.289,346.885 364.476,346.885 364.476,251.977 					"/>
					<rect x="108.393" y="314.247" style="fill:#A83226;" width="11.755" height="32.638"/>
					<rect x="74.947" y="323.733" style="fill:#A83226;" width="9.165" height="23.151"/>
					<rect x="85.629" y="308.521" style="fill:#A83226;" width="6.36" height="38.364"/>
					<rect x="118.798" y="303.221" style="fill:#A83226;" width="11.461" height="43.664"/>
					<rect x="69.949" y="332.298" style="fill:#A83226;" width="9.997" height="14.587"/>
					<rect x="52.944" y="332.308" style="fill:#A83226;" width="396.232" height="14.577"/>
					<rect x="67.121" y="320.599" style="fill:#A83226;" width="13.531" height="26.286"/>
					<rect x="40.363" y="332.914" style="fill:#A83226;" width="4.987" height="13.971"/>
					<rect x="46.175" y="323.733" style="fill:#A83226;" width="3.46" height="23.151"/>
					<rect x="36.104" y="331.023" style="fill:#A83226;" width="7.363" height="15.861"/>
					<rect x="29.016" y="338.923" style="fill:#A83226;" width="28.625" height="7.962"/>
					<rect x="453.707" y="332.914" style="fill:#A83226;" width="4.987" height="13.971"/>
					<rect x="459.519" y="323.733" style="fill:#A83226;" width="3.46" height="23.151"/>
					<rect x="449.447" y="331.023" style="fill:#A83226;" width="7.364" height="15.861"/>
					<rect x="442.359" y="338.923" style="fill:#A83226;" width="28.625" height="7.962"/>
					<rect x="90.45" y="317.537" style="fill:#A83226;" width="13.533" height="29.348"/>
					<rect x="122.529" y="317.537" style="fill:#A83226;" width="13.531" height="29.348"/>
					<rect x="265.866" y="322.664" style="fill:#A83226;" width="18.016" height="24.221"/>
				</g>
			</g>
			<path style="fill:#EAD5BA;" d="M470.984,346.885h-8.006h-3.46h-0.824h-1.883h-3.104h-4.26h-0.272h-6.816h-6.473h-3.139h-2.663
				h-6.902h-1.653h-17.721h-3.461h-4.978h-5.096h-9.797h-6.765h-2.926h-3.841h-0.646h-1.825h-5.149h-2.732h-3.825h-8.48h-1.058
				h-3.152h-4.482h-10.381h-2.103h-4.031h-4.978h-9.009h-6.179h-6.47h-1.382h-7.183h-2.983h-4.2h-7.439h-3.393h-6.742h-4.232h-2.339
				h-9.656h-0.038h-1.751h-7.866h-2.366h-3.961h-90.855h-5.643h-0.159h-7.73h-2.381h-1.35h-8.228h-2.177h-4.41H93.612h-1.624H90.45
				h-4.821h-1.516h-3.461h-0.706h-4.999h-4.998h-2.828h-9.481h-4.696h-3.309h-3.46h-0.825h-1.883h-3.104h-4.259h-7.089v3.431h6.228
				v5.532h4.033v-2.129h1.64v3.336h2.016v-3.336h0.534v-0.816h1.883v-2.588h0.722v3.756h0.103v2.787h3.46v-2.787h2.3v5.456h2.017
				v-6.363h1v3.43h3.774v-3.43h2.722v0.907h3.99v10.796h4.987v-6.658h2.027v8.748h2.494v-8.748h3.882v3.577h4.037v7.43h2.493v-7.43
				h0.27v1.626h6.36v-3.885h1.624v16.698h1.137v1.102h1.432v0.98h0.983v0.744h9.854v-0.744h0.984v-0.98h1.433v-1.102h1.136v-8.028
				l3.158-0.706v-6.547h1.338v6.013h7.31v2.904h7.308v-2.904v-1.263h0.575v-5.517h6.647v2.275v4.913h7.31v-4.913v-0.528
				c3.996,1.218,8.748,2.23,14.032,2.988v20.307l9.475,3.576V365.94c2.736,0.208,5.564,0.352,8.464,0.427v12.022h7.234v-10.232
				h1.841v8.593l7.233-0.895v-9.834c0.408-0.029,0.811-0.06,1.215-0.09v19.314h9.476v-20.352c0.81-0.116,1.608-0.238,2.392-0.367
				v5.871h8.229v-4.732h3.773v11.975h13.263v-11.975h5.355c1.547,11.253,3.172,25.907,3.416,39.184
				c-4.117,0.226-7.086,0.863-7.086,1.615c0,0.304,0.492,0.589,1.341,0.835c-0.849,0.43-1.341,0.926-1.341,1.453
				c0,0.738,0.949,1.41,2.509,1.928v0.824c0,0.577,2.31,1.065,5.494,1.23v10.724c-0.901,0.206-1.49,0.525-1.49,0.886
				c0,0.443,0.881,0.825,2.154,1.01v6.276h0.657v2.324h0.365v7.912h1.361v-7.912h0.365v-2.324h0.654v-6.276
				c1.273-0.185,2.156-0.566,2.156-1.01c0-0.36-0.588-0.68-1.49-0.886v-10.724c3.184-0.166,5.491-0.653,5.491-1.23v-0.824
				c1.561-0.518,2.511-1.189,2.511-1.928c0-0.527-0.491-1.023-1.343-1.453c0.852-0.246,1.343-0.531,1.343-0.835
				c0-0.752-2.971-1.39-7.087-1.615c0.246-13.276,1.87-27.931,3.418-39.184h5.296v6.06l9.43,2.438v10.278h13.148v-12.716h3.142
				v19.599h9.394v-12.158h1.683v-1.26h6.033v4.263h7.17v-7.626h11.524v4.427h4.428v-4.427h2.436v9.407h7.172v-9.407h8.391v34.296
				h4.898v16.516h1.361v-16.516h4.608v-17.132h10.54v-1.038h1.169v-1.364h1.707v-1.534h1.35v-22.074h2.321v12.694h7.233v-5.409
				h7.783v13.195h9.476v-13.195h4.081v-7.315h4.016v14.657h13.264v-5.079h8.88v-22.078h1.653v15.654h6.902v-15.654h2.663v13.159
				h3.139v-13.159h0.822v8.657h3.139v-4.328h2.512v-1.832h0.75v3.866h3.94v-6.363h2.126v-2.849h0.272v3.403h0.323v1.074h3.266
				v-1.074h0.866v3.429h1.744v-3.429h1.165v-0.816h1.883v-0.137h0.824v4.092h3.46v-6.543h0.456v4.847h1.743v-4.847h1.419v3.877
				h3.488v-3.877h0.899V346.885z"/>
		</g>
		<g>
			
				<text transform="matrix(1 0 0 1 157.5021 86.6802)" style="fill:#282828; font-family:'CooperHewitt-Medium'; font-size:26.8033px;">TORONTO</text>
			
				<text transform="matrix(1 0 0 1 159.1817 106.3178)" style="fill:#282828; font-family:'CooperHewitt-Medium'; font-size:9.3161px;">CANADA</text>
			<g>
				<g>
					<g>
						<rect x="158.242" y="60.547" style="fill:#282828;" width="182.813" height="0.665"/>
					</g>
					<g>
						<rect x="158.242" y="58.135" style="fill:#282828;" width="182.813" height="0.665"/>
					</g>
				</g>
				<g>
					<g>
						<rect x="158.242" y="93.319" style="fill:#282828;" width="182.813" height="0.666"/>
					</g>
					<g>
						<rect x="158.242" y="90.907" style="fill:#282828;" width="182.813" height="0.665"/>
					</g>
				</g>
			</g>
		</g>
	</g>
</g>
<g id="DESIGNED_BY_FREEPIK">
	<g>
		<g>
			<path style="fill:#CCCCCC;" d="M180.308,472.209v-0.162c-0.217,0.251-0.432,0.453-0.644,0.609
				c-0.212,0.156-0.442,0.276-0.689,0.354c-0.247,0.085-0.517,0.122-0.81,0.122c-0.388,0-0.747-0.08-1.078-0.244
				c-0.331-0.164-0.616-0.398-0.858-0.705c-0.242-0.304-0.424-0.661-0.548-1.073c-0.126-0.411-0.188-0.857-0.188-1.337
				c0-1.013,0.248-1.802,0.742-2.368c0.496-0.566,1.146-0.848,1.953-0.848c0.467,0,0.861,0.081,1.182,0.239
				c0.32,0.161,0.633,0.408,0.938,0.74v-2.393c0-0.334,0.066-0.584,0.199-0.755c0.132-0.168,0.321-0.254,0.567-0.254
				c0.246,0,0.433,0.078,0.567,0.232c0.133,0.159,0.199,0.388,0.199,0.693v7.148c0,0.309-0.071,0.538-0.214,0.694
				c-0.143,0.154-0.326,0.23-0.552,0.23c-0.222,0-0.405-0.078-0.549-0.237C180.38,472.734,180.308,472.505,180.308,472.209z
				 M177.12,469.827c0,0.441,0.068,0.816,0.205,1.123c0.137,0.31,0.324,0.54,0.561,0.696c0.238,0.156,0.497,0.236,0.778,0.236
				c0.285,0,0.545-0.075,0.781-0.223c0.236-0.148,0.423-0.377,0.563-0.684c0.142-0.307,0.212-0.69,0.212-1.15
				c0-0.432-0.07-0.803-0.212-1.113c-0.14-0.31-0.33-0.547-0.569-0.711c-0.24-0.165-0.502-0.247-0.787-0.247
				c-0.297,0-0.562,0.086-0.795,0.252c-0.234,0.169-0.415,0.409-0.543,0.726C177.184,469.048,177.12,469.412,177.12,469.827z"/>
			<path style="fill:#CCCCCC;" d="M187.454,470.239h-3.169c0.004,0.366,0.077,0.691,0.222,0.973c0.144,0.28,0.337,0.493,0.576,0.635
				c0.239,0.143,0.504,0.212,0.793,0.212c0.194,0,0.371-0.02,0.531-0.066c0.161-0.046,0.316-0.117,0.466-0.214
				c0.15-0.098,0.288-0.2,0.416-0.31c0.126-0.112,0.289-0.264,0.492-0.452c0.083-0.072,0.202-0.109,0.356-0.109
				c0.166,0,0.3,0.049,0.403,0.139c0.104,0.093,0.155,0.22,0.155,0.386c0,0.147-0.058,0.317-0.172,0.512
				c-0.116,0.197-0.288,0.387-0.519,0.565c-0.233,0.181-0.523,0.329-0.874,0.447c-0.349,0.119-0.751,0.178-1.207,0.178
				c-1.041,0-1.851-0.296-2.428-0.889c-0.578-0.593-0.866-1.4-0.866-2.417c0-0.478,0.07-0.923,0.213-1.333
				c0.143-0.408,0.35-0.76,0.623-1.052c0.272-0.293,0.609-0.519,1.01-0.674c0.399-0.157,0.842-0.235,1.33-0.235
				c0.632,0,1.175,0.134,1.628,0.401c0.454,0.267,0.793,0.612,1.019,1.035c0.225,0.424,0.338,0.854,0.338,1.293
				c0,0.41-0.117,0.674-0.351,0.794C188.206,470.177,187.878,470.239,187.454,470.239z M184.285,469.318h2.938
				c-0.039-0.554-0.189-0.969-0.448-1.244c-0.259-0.276-0.601-0.412-1.024-0.412c-0.404,0-0.735,0.139-0.994,0.417
				C184.497,468.359,184.34,468.771,184.285,469.318z"/>
			<path style="fill:#CCCCCC;" d="M194.838,471.016c0,0.447-0.107,0.83-0.326,1.148c-0.217,0.319-0.539,0.561-0.964,0.725
				c-0.425,0.164-0.943,0.244-1.553,0.244c-0.581,0-1.081-0.088-1.496-0.265c-0.415-0.18-0.722-0.401-0.92-0.668
				c-0.198-0.269-0.296-0.535-0.296-0.806c0-0.178,0.063-0.329,0.191-0.456c0.125-0.127,0.287-0.191,0.481-0.191
				c0.17,0,0.299,0.041,0.391,0.126c0.091,0.083,0.178,0.199,0.262,0.348c0.165,0.291,0.365,0.505,0.597,0.648
				c0.232,0.142,0.547,0.215,0.946,0.215c0.326,0,0.592-0.073,0.799-0.219c0.208-0.145,0.311-0.309,0.311-0.494
				c0-0.284-0.107-0.491-0.324-0.624c-0.216-0.13-0.571-0.255-1.065-0.374c-0.558-0.139-1.012-0.285-1.362-0.436
				c-0.35-0.152-0.63-0.354-0.84-0.602c-0.21-0.25-0.315-0.557-0.315-0.92c0-0.324,0.097-0.632,0.292-0.921
				c0.194-0.288,0.48-0.52,0.858-0.692c0.377-0.171,0.833-0.259,1.367-0.259c0.42,0,0.797,0.044,1.13,0.132
				c0.335,0.087,0.615,0.206,0.837,0.351c0.224,0.147,0.395,0.31,0.51,0.486c0.117,0.178,0.175,0.352,0.175,0.522
				c0,0.186-0.063,0.337-0.186,0.457c-0.124,0.119-0.301,0.18-0.532,0.18c-0.166,0-0.307-0.05-0.423-0.146
				c-0.117-0.094-0.25-0.235-0.401-0.425c-0.122-0.159-0.267-0.286-0.432-0.381c-0.167-0.096-0.392-0.142-0.678-0.142
				c-0.293,0-0.536,0.06-0.73,0.186c-0.194,0.125-0.291,0.279-0.291,0.465c0,0.171,0.071,0.31,0.212,0.419
				c0.143,0.108,0.336,0.199,0.577,0.271c0.242,0.071,0.573,0.155,0.997,0.26c0.501,0.124,0.912,0.268,1.231,0.439
				c0.317,0.17,0.559,0.372,0.724,0.603C194.757,470.455,194.838,470.718,194.838,471.016z"/>
			<path style="fill:#CCCCCC;" d="M196.494,465.793c-0.226,0-0.418-0.07-0.579-0.209c-0.16-0.139-0.241-0.335-0.241-0.589
				c0-0.229,0.082-0.417,0.246-0.567c0.165-0.147,0.357-0.223,0.574-0.223c0.21,0,0.396,0.068,0.558,0.203
				c0.162,0.136,0.244,0.331,0.244,0.587c0,0.252-0.08,0.445-0.238,0.584C196.899,465.721,196.711,465.793,196.494,465.793z
				 M197.296,467.466v4.684c0,0.324-0.078,0.57-0.232,0.734c-0.155,0.168-0.35,0.249-0.588,0.249c-0.238,0-0.431-0.083-0.579-0.254
				c-0.148-0.169-0.222-0.413-0.222-0.729v-4.637c0-0.319,0.074-0.561,0.222-0.725c0.148-0.161,0.341-0.244,0.579-0.244
				c0.238,0,0.433,0.083,0.588,0.244C197.218,466.951,197.296,467.178,197.296,467.466z"/>
			<path style="fill:#CCCCCC;" d="M204.395,467.732v4.707c0,0.539-0.058,1.003-0.172,1.39c-0.114,0.388-0.299,0.708-0.553,0.961
				c-0.253,0.252-0.584,0.442-0.994,0.564c-0.409,0.122-0.919,0.186-1.528,0.186c-0.558,0-1.057-0.08-1.497-0.235
				c-0.438-0.157-0.776-0.358-1.014-0.604c-0.238-0.249-0.357-0.503-0.357-0.764c0-0.198,0.067-0.361,0.203-0.484
				c0.134-0.125,0.297-0.188,0.486-0.188c0.237,0,0.446,0.105,0.624,0.315c0.086,0.107,0.176,0.216,0.27,0.323
				c0.093,0.111,0.197,0.204,0.309,0.28c0.112,0.078,0.248,0.135,0.407,0.173c0.158,0.037,0.34,0.055,0.545,0.055
				c0.42,0,0.746-0.059,0.978-0.176c0.231-0.115,0.393-0.28,0.487-0.488c0.093-0.209,0.147-0.433,0.163-0.676
				c0.016-0.239,0.028-0.623,0.036-1.153c-0.25,0.349-0.537,0.613-0.864,0.796c-0.325,0.183-0.715,0.273-1.166,0.273
				c-0.542,0-1.016-0.139-1.422-0.417c-0.405-0.276-0.717-0.662-0.935-1.162c-0.217-0.501-0.326-1.075-0.326-1.728
				c0-0.486,0.066-0.926,0.199-1.318c0.133-0.391,0.322-0.721,0.566-0.991c0.246-0.268,0.529-0.47,0.849-0.606
				c0.321-0.137,0.673-0.205,1.057-0.205c0.458,0,0.857,0.087,1.193,0.264c0.336,0.177,0.649,0.452,0.938,0.828v-0.22
				c0-0.28,0.069-0.498,0.208-0.654c0.139-0.153,0.317-0.231,0.534-0.231c0.313,0,0.521,0.103,0.623,0.306
				C204.343,467.056,204.395,467.349,204.395,467.732z M199.699,469.787c0,0.657,0.144,1.153,0.43,1.49
				c0.287,0.335,0.658,0.505,1.113,0.505c0.269,0,0.522-0.073,0.762-0.219c0.24-0.145,0.435-0.361,0.586-0.652
				c0.15-0.29,0.225-0.643,0.225-1.06c0-0.661-0.145-1.175-0.436-1.543c-0.291-0.368-0.674-0.553-1.148-0.553
				c-0.464,0-0.834,0.177-1.113,0.53C199.838,468.637,199.699,469.137,199.699,469.787z"/>
			<path style="fill:#CCCCCC;" d="M206.97,467.442v0.195c0.285-0.376,0.596-0.652,0.935-0.828c0.339-0.176,0.726-0.266,1.165-0.266
				c0.428,0,0.81,0.095,1.146,0.28c0.336,0.188,0.588,0.449,0.753,0.788c0.107,0.2,0.177,0.413,0.207,0.643
				c0.032,0.229,0.049,0.522,0.049,0.879v3.016c0,0.324-0.075,0.57-0.224,0.734c-0.148,0.168-0.341,0.249-0.579,0.249
				c-0.242,0-0.437-0.083-0.587-0.254c-0.151-0.169-0.226-0.413-0.226-0.729v-2.703c0-0.532-0.074-0.942-0.223-1.224
				c-0.148-0.283-0.443-0.427-0.888-0.427c-0.288,0-0.552,0.088-0.789,0.259c-0.237,0.175-0.412,0.41-0.523,0.71
				c-0.079,0.242-0.12,0.691-0.12,1.354v2.031c0,0.329-0.076,0.575-0.227,0.739c-0.153,0.164-0.349,0.244-0.591,0.244
				c-0.234,0-0.426-0.083-0.576-0.254c-0.15-0.169-0.226-0.413-0.226-0.729v-4.684c0-0.309,0.067-0.541,0.202-0.693
				c0.135-0.15,0.318-0.229,0.552-0.229c0.142,0,0.272,0.036,0.388,0.101c0.114,0.069,0.206,0.17,0.275,0.305
				C206.936,467.083,206.97,467.247,206.97,467.442z"/>
			<path style="fill:#CCCCCC;" d="M216.83,470.239h-3.17c0.004,0.366,0.078,0.691,0.223,0.973c0.144,0.28,0.336,0.493,0.575,0.635
				c0.239,0.143,0.504,0.212,0.793,0.212c0.194,0,0.371-0.02,0.532-0.066c0.159-0.046,0.315-0.117,0.466-0.214
				c0.149-0.098,0.287-0.2,0.415-0.31c0.126-0.112,0.291-0.264,0.493-0.452c0.083-0.072,0.203-0.109,0.356-0.109
				c0.166,0,0.301,0.049,0.404,0.139c0.102,0.093,0.153,0.22,0.153,0.386c0,0.147-0.057,0.317-0.172,0.512
				c-0.115,0.197-0.288,0.387-0.52,0.565c-0.231,0.181-0.521,0.329-0.872,0.447c-0.351,0.119-0.753,0.178-1.208,0.178
				c-1.041,0-1.85-0.296-2.428-0.889c-0.578-0.593-0.868-1.4-0.868-2.417c0-0.478,0.072-0.923,0.214-1.333
				c0.143-0.408,0.35-0.76,0.624-1.052c0.273-0.293,0.609-0.519,1.008-0.674c0.4-0.157,0.843-0.235,1.33-0.235
				c0.633,0,1.176,0.134,1.629,0.401c0.454,0.267,0.794,0.612,1.019,1.035c0.225,0.424,0.338,0.854,0.338,1.293
				c0,0.41-0.117,0.674-0.35,0.794C217.582,470.177,217.253,470.239,216.83,470.239z M213.66,469.318h2.938
				c-0.038-0.554-0.189-0.969-0.448-1.244c-0.26-0.276-0.601-0.412-1.023-0.412c-0.405,0-0.736,0.139-0.996,0.417
				C213.872,468.359,213.715,468.771,213.66,469.318z"/>
			<path style="fill:#CCCCCC;" d="M223.436,472.209v-0.162c-0.218,0.251-0.433,0.453-0.644,0.609
				c-0.212,0.156-0.441,0.276-0.689,0.354c-0.246,0.085-0.517,0.122-0.809,0.122c-0.388,0-0.748-0.08-1.078-0.244
				c-0.33-0.164-0.617-0.398-0.857-0.705c-0.242-0.304-0.425-0.661-0.549-1.073c-0.124-0.411-0.186-0.857-0.186-1.337
				c0-1.013,0.246-1.802,0.741-2.368c0.496-0.566,1.146-0.848,1.954-0.848c0.467,0,0.861,0.081,1.181,0.239
				c0.321,0.161,0.634,0.408,0.938,0.74v-2.393c0-0.334,0.066-0.584,0.199-0.755c0.133-0.168,0.322-0.254,0.567-0.254
				c0.245,0,0.434,0.078,0.566,0.232c0.133,0.159,0.199,0.388,0.199,0.693v7.148c0,0.309-0.071,0.538-0.213,0.694
				c-0.143,0.154-0.327,0.23-0.552,0.23c-0.222,0-0.404-0.078-0.549-0.237C223.507,472.734,223.436,472.505,223.436,472.209z
				 M220.248,469.827c0,0.441,0.067,0.816,0.205,1.123c0.137,0.31,0.324,0.54,0.562,0.696c0.237,0.156,0.496,0.236,0.776,0.236
				c0.286,0,0.546-0.075,0.781-0.223c0.236-0.148,0.424-0.377,0.564-0.684c0.14-0.307,0.21-0.69,0.21-1.15
				c0-0.432-0.07-0.803-0.21-1.113c-0.141-0.31-0.331-0.547-0.57-0.711c-0.24-0.165-0.502-0.247-0.787-0.247
				c-0.296,0-0.563,0.086-0.795,0.252c-0.233,0.169-0.415,0.409-0.543,0.726C220.313,469.048,220.248,469.412,220.248,469.827z"/>
			<path style="fill:#CCCCCC;" d="M230.06,465.061v2.476c0.304-0.317,0.614-0.562,0.932-0.728c0.315-0.168,0.709-0.252,1.175-0.252
				c0.539,0,1.01,0.128,1.416,0.382c0.405,0.256,0.719,0.625,0.943,1.11c0.223,0.485,0.336,1.06,0.336,1.724
				c0,0.493-0.063,0.94-0.188,1.351c-0.126,0.412-0.307,0.767-0.543,1.066c-0.238,0.301-0.526,0.534-0.864,0.698
				c-0.338,0.164-0.712,0.244-1.119,0.244c-0.25,0-0.484-0.027-0.704-0.088c-0.22-0.059-0.406-0.137-0.561-0.234
				c-0.154-0.096-0.286-0.195-0.395-0.3c-0.108-0.103-0.253-0.257-0.43-0.464v0.162c0,0.304-0.073,0.535-0.22,0.691
				c-0.146,0.157-0.332,0.232-0.559,0.232c-0.229,0-0.412-0.075-0.548-0.232c-0.137-0.156-0.205-0.388-0.205-0.691v-7.077
				c0-0.329,0.066-0.578,0.199-0.744c0.132-0.167,0.318-0.252,0.555-0.252c0.25,0,0.441,0.08,0.575,0.239
				C229.992,464.537,230.06,464.764,230.06,465.061z M230.137,469.876c0,0.645,0.147,1.141,0.442,1.484
				c0.295,0.349,0.682,0.522,1.161,0.522c0.407,0,0.759-0.178,1.053-0.532c0.294-0.354,0.442-0.862,0.442-1.523
				c0-0.427-0.061-0.794-0.183-1.103c-0.124-0.308-0.297-0.547-0.523-0.716c-0.227-0.166-0.49-0.252-0.79-0.252
				c-0.309,0-0.585,0.086-0.825,0.252c-0.242,0.169-0.432,0.414-0.57,0.73C230.206,469.058,230.137,469.436,230.137,469.876z"/>
			<path style="fill:#CCCCCC;" d="M236.963,473.336l0.148-0.361l-1.994-5.023c-0.124-0.288-0.186-0.5-0.186-0.63
				c0-0.139,0.037-0.267,0.107-0.384c0.072-0.121,0.17-0.217,0.294-0.286c0.124-0.072,0.254-0.108,0.388-0.108
				c0.234,0,0.41,0.075,0.529,0.225c0.119,0.146,0.223,0.36,0.314,0.637l1.371,3.989l1.301-3.709
				c0.103-0.302,0.196-0.536,0.278-0.708c0.083-0.17,0.172-0.283,0.265-0.343c0.093-0.06,0.225-0.091,0.395-0.091
				c0.124,0,0.241,0.034,0.354,0.1c0.113,0.065,0.2,0.153,0.261,0.264c0.061,0.112,0.093,0.228,0.093,0.35
				c-0.017,0.075-0.042,0.183-0.078,0.322c-0.035,0.139-0.079,0.278-0.129,0.421l-2.114,5.532c-0.182,0.486-0.36,0.866-0.535,1.146
				c-0.174,0.276-0.404,0.489-0.691,0.638c-0.287,0.149-0.674,0.225-1.161,0.225c-0.475,0-0.831-0.054-1.068-0.154
				c-0.238-0.104-0.357-0.291-0.357-0.565c0-0.186,0.057-0.33,0.171-0.43c0.112-0.103,0.279-0.152,0.5-0.152
				c0.088,0,0.174,0.011,0.257,0.035c0.103,0.023,0.191,0.036,0.266,0.036c0.187,0,0.333-0.027,0.44-0.083
				c0.106-0.056,0.201-0.151,0.287-0.288C236.755,473.804,236.852,473.602,236.963,473.336z"/>
		</g>
		<g>
			<path style="fill:#CCCCCC;" d="M260.439,466.685h0.388v-0.486c0-0.508,0.062-0.91,0.191-1.211c0.127-0.3,0.346-0.516,0.653-0.652
				c0.306-0.138,0.727-0.205,1.26-0.205c0.95,0,1.421,0.23,1.421,0.696c0,0.15-0.05,0.278-0.15,0.384
				c-0.096,0.105-0.215,0.161-0.349,0.161c-0.061,0-0.172-0.011-0.33-0.037c-0.147-0.021-0.281-0.034-0.389-0.034
				c-0.291,0-0.478,0.086-0.565,0.259c-0.08,0.172-0.122,0.416-0.122,0.74v0.386h0.396c0.618,0,0.924,0.186,0.924,0.561
				c0,0.26-0.078,0.43-0.245,0.502c-0.163,0.07-0.39,0.105-0.679,0.105h-0.396v4.297c0,0.319-0.077,0.561-0.231,0.729
				c-0.151,0.171-0.347,0.254-0.59,0.254c-0.23,0-0.417-0.083-0.574-0.254c-0.152-0.168-0.226-0.41-0.226-0.729v-4.297h-0.446
				c-0.244,0-0.428-0.052-0.56-0.162c-0.131-0.106-0.196-0.248-0.196-0.422C259.625,466.878,259.896,466.685,260.439,466.685"/>
			<path style="fill:#CCCCCC;" d="M265.745,470.794v1.355c0,0.327-0.082,0.575-0.234,0.736c-0.154,0.167-0.35,0.247-0.586,0.247
				c-0.237,0-0.43-0.081-0.577-0.25c-0.148-0.165-0.227-0.411-0.227-0.733v-4.515c0-0.729,0.264-1.092,0.788-1.092
				c0.271,0,0.464,0.084,0.584,0.254c0.117,0.171,0.184,0.421,0.197,0.755c0.193-0.334,0.392-0.584,0.594-0.755
				c0.207-0.17,0.476-0.254,0.818-0.254c0.342,0,0.669,0.084,0.99,0.254c0.322,0.171,0.483,0.398,0.483,0.677
				c0,0.197-0.07,0.364-0.204,0.489c-0.138,0.131-0.286,0.196-0.442,0.196c-0.061,0-0.207-0.041-0.432-0.114
				c-0.229-0.068-0.433-0.107-0.602-0.107c-0.238,0-0.434,0.065-0.583,0.185c-0.151,0.129-0.271,0.312-0.354,0.557
				c-0.079,0.246-0.137,0.539-0.171,0.878C265.76,469.894,265.745,470.309,265.745,470.794"/>
			<path style="fill:#CCCCCC;" d="M273.197,470.235h-3.173c0.007,0.368,0.078,0.695,0.222,0.975
				c0.147,0.278,0.337,0.491,0.577,0.636c0.241,0.141,0.503,0.212,0.794,0.212c0.194,0,0.37-0.02,0.531-0.069
				c0.16-0.045,0.314-0.116,0.466-0.214c0.151-0.096,0.288-0.198,0.415-0.313c0.126-0.109,0.291-0.261,0.494-0.449
				c0.083-0.07,0.202-0.109,0.355-0.109c0.167,0,0.299,0.048,0.404,0.139c0.103,0.093,0.152,0.22,0.152,0.388
				c0,0.146-0.056,0.317-0.167,0.511c-0.116,0.198-0.289,0.386-0.521,0.566c-0.234,0.178-0.526,0.329-0.874,0.446
				c-0.35,0.118-0.754,0.179-1.208,0.179c-1.045,0-1.853-0.296-2.43-0.889c-0.578-0.594-0.868-1.401-0.868-2.417
				c0-0.48,0.073-0.925,0.217-1.335c0.14-0.41,0.349-0.76,0.625-1.055c0.27-0.293,0.605-0.518,1.008-0.672
				c0.398-0.158,0.841-0.236,1.329-0.236c0.632,0,1.174,0.136,1.629,0.405c0.452,0.264,0.797,0.609,1.018,1.033
				c0.227,0.426,0.339,0.853,0.339,1.296c0,0.405-0.117,0.669-0.352,0.791C273.947,470.177,273.619,470.235,273.197,470.235
				 M270.024,469.315h2.94c-0.041-0.554-0.188-0.969-0.445-1.242c-0.263-0.276-0.602-0.411-1.026-0.411
				c-0.405,0-0.736,0.137-0.996,0.418C270.237,468.357,270.08,468.77,270.024,469.315"/>
			<path style="fill:#CCCCCC;" d="M279.939,470.235h-3.171c0.005,0.368,0.078,0.695,0.222,0.975
				c0.145,0.278,0.337,0.491,0.576,0.636c0.237,0.141,0.503,0.212,0.794,0.212c0.192,0,0.37-0.02,0.527-0.069
				c0.163-0.045,0.315-0.116,0.469-0.214c0.151-0.096,0.288-0.198,0.415-0.313c0.124-0.109,0.292-0.261,0.493-0.449
				c0.083-0.07,0.203-0.109,0.354-0.109c0.168,0,0.301,0.048,0.407,0.139c0.103,0.093,0.15,0.22,0.15,0.388
				c0,0.146-0.056,0.317-0.172,0.511c-0.11,0.198-0.285,0.386-0.52,0.566c-0.23,0.178-0.523,0.329-0.871,0.446
				c-0.349,0.118-0.754,0.179-1.208,0.179c-1.044,0-1.851-0.296-2.431-0.889c-0.578-0.594-0.867-1.401-0.867-2.417
				c0-0.48,0.073-0.925,0.217-1.335c0.142-0.41,0.35-0.76,0.623-1.055c0.271-0.293,0.607-0.518,1.01-0.672
				c0.396-0.158,0.843-0.236,1.329-0.236c0.632,0,1.174,0.136,1.633,0.405c0.45,0.264,0.792,0.609,1.014,1.033
				c0.225,0.426,0.34,0.853,0.34,1.296c0,0.405-0.119,0.669-0.35,0.791C280.689,470.177,280.359,470.235,279.939,470.235
				 M276.768,469.315h2.938c-0.04-0.554-0.191-0.969-0.447-1.242c-0.262-0.276-0.601-0.411-1.025-0.411
				c-0.404,0-0.735,0.137-0.996,0.418C276.978,468.357,276.819,468.77,276.768,469.315"/>
			<path style="fill:#CCCCCC;" d="M283.488,467.454v0.193c0.303-0.374,0.62-0.65,0.953-0.826c0.322-0.178,0.698-0.268,1.112-0.268
				c0.498,0,0.96,0.131,1.38,0.386c0.42,0.259,0.75,0.635,0.993,1.128c0.244,0.497,0.366,1.083,0.366,1.76
				c0,0.498-0.07,0.957-0.209,1.375c-0.142,0.419-0.337,0.769-0.581,1.05c-0.245,0.282-0.535,0.5-0.869,0.654
				c-0.338,0.151-0.694,0.227-1.08,0.227c-0.461,0-0.852-0.093-1.164-0.28c-0.313-0.181-0.615-0.457-0.901-0.813v2.432
				c0,0.71-0.261,1.069-0.778,1.069c-0.306,0-0.506-0.093-0.605-0.275c-0.096-0.186-0.148-0.452-0.148-0.807v-6.996
				c0-0.309,0.068-0.538,0.2-0.691c0.136-0.15,0.32-0.228,0.554-0.228c0.231,0,0.417,0.077,0.56,0.232
				C283.416,466.935,283.488,467.156,283.488,467.454 M286.665,469.81c0-0.43-0.065-0.798-0.197-1.104
				c-0.13-0.307-0.311-0.541-0.54-0.703c-0.23-0.165-0.49-0.25-0.77-0.25c-0.446,0-0.824,0.178-1.132,0.529
				c-0.308,0.354-0.462,0.871-0.462,1.557c0,0.643,0.151,1.147,0.459,1.505c0.306,0.358,0.68,0.536,1.135,0.536
				c0.267,0,0.518-0.08,0.748-0.233c0.231-0.157,0.414-0.391,0.551-0.703C286.595,470.629,286.665,470.25,286.665,469.81"/>
			<path style="fill:#CCCCCC;" d="M289.927,465.788c-0.228,0-0.42-0.072-0.578-0.211c-0.162-0.138-0.242-0.33-0.242-0.584
				c0-0.232,0.081-0.418,0.249-0.57c0.163-0.145,0.354-0.221,0.571-0.221c0.212,0,0.396,0.066,0.556,0.198
				c0.164,0.139,0.245,0.336,0.245,0.593c0,0.249-0.08,0.444-0.234,0.584C290.334,465.716,290.145,465.788,289.927,465.788
				 M290.728,467.462v4.688c0,0.322-0.076,0.568-0.23,0.733c-0.158,0.169-0.352,0.25-0.589,0.25c-0.238,0-0.429-0.083-0.58-0.254
				c-0.147-0.173-0.223-0.415-0.223-0.729v-4.642c0-0.319,0.075-0.559,0.223-0.723c0.151-0.163,0.342-0.242,0.58-0.242
				c0.237,0,0.431,0.079,0.589,0.242C290.651,466.949,290.728,467.176,290.728,467.462"/>
			<path style="fill:#CCCCCC;" d="M295.952,472.392l-1.428-2.353l-0.88,0.83v1.292c0,0.311-0.084,0.55-0.248,0.718
				c-0.161,0.171-0.353,0.254-0.566,0.254c-0.249,0-0.445-0.081-0.588-0.25c-0.143-0.165-0.216-0.411-0.216-0.733v-6.914
				c0-0.358,0.073-0.633,0.208-0.822c0.141-0.189,0.342-0.282,0.596-0.282c0.249,0,0.446,0.086,0.595,0.257
				c0.145,0.169,0.22,0.42,0.22,0.752v3.932l1.822-1.913c0.227-0.234,0.396-0.399,0.517-0.486c0.118-0.087,0.263-0.129,0.431-0.129
				c0.204,0,0.373,0.063,0.51,0.191c0.132,0.129,0.201,0.292,0.201,0.483c0,0.238-0.221,0.558-0.659,0.952l-0.86,0.788l1.662,2.615
				c0.12,0.196,0.213,0.339,0.265,0.439c0.053,0.1,0.082,0.201,0.082,0.29c0,0.257-0.072,0.459-0.214,0.608
				c-0.142,0.148-0.328,0.222-0.553,0.222c-0.197,0-0.354-0.051-0.459-0.159C296.282,472.866,296.135,472.672,295.952,472.392"/>
			<path style="fill:#CCCCCC;" d="M299.475,473.133c-0.244,0-0.456-0.078-0.634-0.237c-0.178-0.155-0.268-0.38-0.268-0.666
				c0-0.24,0.087-0.449,0.256-0.622c0.174-0.174,0.381-0.262,0.632-0.262c0.249,0,0.459,0.088,0.638,0.257
				c0.176,0.173,0.264,0.383,0.264,0.627c0,0.283-0.088,0.506-0.264,0.663C299.919,473.055,299.712,473.133,299.475,473.133"/>
			<path style="fill:#CCCCCC;" d="M307.536,471.128c0,0.2-0.061,0.417-0.181,0.647c-0.121,0.23-0.307,0.449-0.556,0.655
				c-0.245,0.207-0.555,0.376-0.933,0.503c-0.376,0.127-0.802,0.19-1.27,0.19c-1.004,0-1.787-0.293-2.348-0.876
				c-0.561-0.584-0.842-1.366-0.842-2.35c0-0.668,0.128-1.253,0.387-1.765c0.256-0.51,0.627-0.905,1.112-1.184
				c0.488-0.279,1.072-0.42,1.747-0.42c0.421,0,0.805,0.061,1.158,0.185c0.35,0.123,0.645,0.283,0.891,0.475
				c0.242,0.197,0.43,0.402,0.556,0.62c0.129,0.22,0.192,0.425,0.192,0.617c0,0.191-0.07,0.358-0.215,0.491
				c-0.147,0.136-0.322,0.204-0.524,0.204c-0.137,0-0.248-0.036-0.337-0.104c-0.091-0.07-0.19-0.181-0.301-0.337
				c-0.198-0.301-0.402-0.527-0.622-0.677c-0.213-0.15-0.488-0.225-0.821-0.225c-0.476,0-0.863,0.185-1.159,0.56
				c-0.29,0.373-0.439,0.887-0.439,1.535c0,0.304,0.041,0.586,0.116,0.841c0.072,0.254,0.182,0.473,0.323,0.653
				c0.145,0.179,0.315,0.315,0.518,0.408c0.202,0.096,0.427,0.142,0.665,0.142c0.326,0,0.604-0.075,0.836-0.227
				c0.235-0.149,0.439-0.379,0.616-0.688c0.098-0.181,0.205-0.323,0.317-0.426c0.114-0.104,0.256-0.156,0.424-0.156
				c0.196,0,0.362,0.076,0.489,0.228C307.469,470.796,307.536,470.958,307.536,471.128"/>
			<path style="fill:#CCCCCC;" d="M314.529,469.839c0,0.481-0.076,0.929-0.221,1.338c-0.155,0.406-0.37,0.757-0.656,1.048
				c-0.283,0.293-0.627,0.518-1.02,0.676c-0.4,0.154-0.845,0.232-1.336,0.232c-0.492,0-0.933-0.078-1.327-0.237
				c-0.389-0.155-0.73-0.385-1.016-0.677c-0.286-0.299-0.504-0.646-0.657-1.049c-0.142-0.4-0.218-0.845-0.218-1.331
				c0-0.492,0.076-0.94,0.223-1.35c0.152-0.407,0.369-0.757,0.649-1.045c0.283-0.288,0.62-0.51,1.019-0.669
				c0.404-0.155,0.845-0.232,1.327-0.232c0.49,0,0.935,0.077,1.336,0.237c0.398,0.158,0.74,0.384,1.027,0.676
				c0.286,0.296,0.503,0.643,0.65,1.043C314.455,468.907,314.529,469.351,314.529,469.839 M312.904,469.839
				c0-0.661-0.148-1.175-0.436-1.542c-0.29-0.374-0.682-0.557-1.172-0.557c-0.317,0-0.598,0.083-0.84,0.246
				c-0.241,0.164-0.425,0.407-0.557,0.729c-0.131,0.32-0.197,0.694-0.197,1.123c0,0.425,0.064,0.792,0.193,1.109
				c0.131,0.317,0.314,0.56,0.556,0.728c0.241,0.168,0.52,0.253,0.845,0.253c0.49,0,0.882-0.187,1.172-0.557
				C312.756,471.002,312.904,470.489,312.904,469.839"/>
			<path style="fill:#CCCCCC;" d="M320.713,469.957v2.155c0,0.342-0.077,0.594-0.229,0.767c-0.158,0.171-0.359,0.254-0.613,0.254
				c-0.244,0-0.444-0.083-0.593-0.254c-0.154-0.173-0.232-0.425-0.232-0.767v-2.581c0-0.409-0.015-0.727-0.041-0.954
				c-0.029-0.22-0.104-0.408-0.227-0.552c-0.123-0.146-0.318-0.22-0.581-0.22c-0.532,0-0.881,0.181-1.048,0.552
				c-0.166,0.359-0.254,0.884-0.254,1.566v2.189c0,0.335-0.078,0.591-0.225,0.764c-0.158,0.172-0.356,0.257-0.603,0.257
				c-0.249,0-0.449-0.085-0.605-0.257c-0.158-0.173-0.237-0.429-0.237-0.764v-4.639c0-0.305,0.07-0.535,0.212-0.693
				c0.144-0.16,0.328-0.237,0.556-0.237c0.223,0,0.407,0.076,0.558,0.223c0.146,0.147,0.22,0.354,0.22,0.613v0.154
				c0.284-0.335,0.586-0.582,0.904-0.738c0.323-0.161,0.676-0.241,1.069-0.241c0.407,0,0.757,0.081,1.049,0.243
				c0.294,0.164,0.533,0.41,0.726,0.736c0.275-0.33,0.567-0.577,0.881-0.738c0.313-0.161,0.659-0.241,1.04-0.241
				c0.441,0,0.825,0.09,1.146,0.263c0.319,0.172,0.559,0.425,0.716,0.747c0.139,0.294,0.207,0.755,0.207,1.385v3.164
				c0,0.342-0.076,0.594-0.23,0.767c-0.154,0.171-0.358,0.254-0.612,0.254c-0.247,0-0.445-0.085-0.602-0.257
				c-0.158-0.173-0.236-0.429-0.236-0.764v-2.727c0-0.348-0.015-0.628-0.044-0.835c-0.027-0.211-0.11-0.389-0.237-0.53
				c-0.134-0.142-0.334-0.215-0.596-0.215c-0.214,0-0.417,0.066-0.61,0.192c-0.19,0.123-0.342,0.299-0.449,0.508
				C320.773,468.78,320.713,469.264,320.713,469.957"/>
		</g>
		<g>
			<path style="fill:#CCCCCC;" d="M245.272,469.446c-0.001-0.003-0.001-0.005-0.001-0.01
				C245.271,469.441,245.271,469.443,245.272,469.446z"/>
			<path style="fill:#CCCCCC;" d="M245.354,469.964C245.355,469.964,245.355,469.964,245.354,469.964
				c-0.029-0.146-0.054-0.293-0.072-0.439C245.3,469.673,245.325,469.819,245.354,469.964z"/>
			<path style="fill:#CCCCCC;" d="M245.891,471.47c-0.004-0.007-0.007-0.014-0.011-0.021
				C245.884,471.456,245.887,471.463,245.891,471.47z"/>
			<path style="fill:#CCCCCC;" d="M245.839,471.368c-0.015-0.027-0.027-0.055-0.04-0.085
				C245.812,471.314,245.824,471.341,245.839,471.368z"/>
			<path style="fill:#CCCCCC;" d="M245.504,470.543c0.079,0.251,0.176,0.493,0.286,0.725c-0.113-0.236-0.206-0.479-0.283-0.725
				H245.504z"/>
			<path style="fill:#CCCCCC;" d="M251.546,463.237c0.314,0,0.544,0.024,0.81,0.067l0.076-0.475c0,0-0.734-0.227-1.695-0.148
				l-0.077-0.26c0.301-0.064,0.524-0.328,0.524-0.646c0-0.365-0.297-0.659-0.66-0.659c-0.365,0-0.661,0.294-0.661,0.659
				c0,0.317,0.224,0.582,0.522,0.646l0.084,0.29c-1.02,0.14-1.834,0.539-1.834,0.539l0.144,0.44c0.618-0.206,1.152-0.332,1.64-0.384
				C250.895,463.258,251.255,463.237,251.546,463.237z"/>
			<path style="fill:#CCCCCC;" d="M245.879,465.647l0.003-0.005c0.023-0.031,0.047-0.061,0.069-0.088l-0.194-0.142l-0.304-0.225
				c-0.018,0.026-0.497,0.466-0.876,1.281c-0.016-0.024-0.035-0.051-0.057-0.075c-0.113-0.124-0.272-0.188-0.474-0.184
				c-0.002,0-0.006,0-0.009,0c-0.124,0-0.21-0.041-0.267-0.092c0.055-0.069,0.089-0.159,0.089-0.259c0-0.23-0.187-0.418-0.419-0.418
				c-0.23,0-0.417,0.188-0.417,0.418c0,0.233,0.188,0.419,0.417,0.419c0.037,0,0.071-0.007,0.105-0.014
				c0.103,0.116,0.266,0.214,0.504,0.209c0.123,0,0.214,0.032,0.273,0.099c0.069,0.075,0.093,0.185,0.1,0.266
				c0,0.002,0,0.003-0.001,0.003c-0.273,0.744-0.195,1.669-0.195,1.669l0.661,0.027c0.014-0.337,0.061-0.928,0.232-1.394
				C245.45,466.238,245.863,465.672,245.879,465.647z"/>
			<path style="fill:#CCCCCC;" d="M257.295,463.787c-0.229,0-0.417,0.188-0.417,0.42c0,0.034,0.005,0.07,0.015,0.103
				c-0.115,0.103-0.215,0.267-0.211,0.506c0.001,0.124-0.031,0.214-0.098,0.273c-0.053,0.046-0.119,0.073-0.185,0.09
				c-0.491-0.691-1.097-1.111-1.097-1.111l-0.476,0.508c0.358,0.327,0.727,0.735,1.081,1.245c0.246,0.353,0.5,0.807,0.711,1.259
				l0.64-0.304c0,0-0.293-0.723-0.702-1.37c0.069-0.026,0.143-0.064,0.207-0.121c0.124-0.11,0.184-0.272,0.182-0.474
				c-0.002-0.13,0.041-0.216,0.093-0.274c0.071,0.055,0.16,0.087,0.257,0.087c0.232,0,0.42-0.186,0.42-0.416
				C257.715,463.976,257.527,463.787,257.295,463.787z"/>
			<path style="fill:#CCCCCC;" d="M255.635,469.541c-0.883,0.428-2.331,0.994-4.238,1.261c-0.75,0.105-1.475,0.142-2.144,0.142
				c-0.869,0-1.639-0.063-2.225-0.138c-0.673-0.085-1.2-0.189-1.521-0.263c0.077,0.246,0.17,0.488,0.283,0.725
				c0.003,0.007,0.006,0.015,0.009,0.016c0.013,0.03,0.025,0.058,0.04,0.085c0.015,0.028,0.027,0.054,0.042,0.08
				c0.003,0.008,0.007,0.015,0.011,0.021c0.187,0.357,0.416,0.684,0.675,0.967c0.9,0.984,1.817,1.141,1.826,1.141l0.014,0.002
				l0.014,0.005c0.008,0.005,0.82,0.267,2.057,0.267c1.215,0,2.41-0.246,3.547-0.729c0.84-0.433,1.64-1.085,2.033-1.67
				c0.304-0.45,0.525-0.931,0.655-1.434c0.07-0.264,0.124-0.691,0.093-1.141C256.557,469.044,256.165,469.282,255.635,469.541z"/>
			<path style="fill:#CCCCCC;" d="M246.161,465.855c-0.025,0.038-0.408,0.58-0.709,1.41c-0.226,0.62-0.216,1.526-0.216,1.536v0.003
				c0,0.212,0.012,0.422,0.035,0.632c0,0.005,0,0.007,0.001,0.01c0.002,0.026,0.007,0.054,0.01,0.079
				c0.018,0.146,0.042,0.292,0.073,0.439c0.437,0.112,3.05,0.721,5.968,0.314c1.829-0.256,3.219-0.795,4.063-1.205
				c0.699-0.338,1.15-0.647,1.323-0.774c-0.173-0.64-0.649-1.65-1.087-2.278c-1.255-1.789-2.605-2.248-3.3-2.363
				c-0.264-0.044-0.477-0.068-0.776-0.068c-0.281,0-0.627,0.022-1.09,0.071c-0.464,0.049-0.98,0.169-1.583,0.373
				c-0.842,0.281-1.604,0.723-2.204,1.277l-0.02,0.022C246.561,465.413,246.373,465.586,246.161,465.855z M253.83,465.44
				c0.599,0,1.09,0.488,1.09,1.088c0,0.602-0.491,1.09-1.09,1.09c-0.601,0-1.089-0.488-1.089-1.09
				C252.741,465.929,253.229,465.44,253.83,465.44z M248.678,465.396c0.974,0,1.761,0.789,1.761,1.761
				c0,0.974-0.787,1.761-1.761,1.761c-0.972,0-1.758-0.787-1.758-1.761C246.92,466.185,247.706,465.396,248.678,465.396z"/>
		</g>
	</g>
</g>
</svg>
